<svg width="22" height="17" viewBox="0 0 22 17" fill="none" xmlns="http://www.w3.org/2000/svg">
<path d="M1.47498 0.528625V0.0286255H0.974976V0.528625H1.47498ZM21.0958 0.528625H21.5958V0.0286255H21.0958V0.528625ZM21.0958 2.52863V3.02863H21.5958V2.52863H21.0958ZM1.47498 2.52863H0.974976V3.02863H1.47498V2.52863ZM1.47498 7.70923V7.20923H0.974976V7.70923H1.47498ZM21.0958 7.70923H21.5958V7.20923H21.0958V7.70923ZM21.0958 9.70923V10.2092H21.5958V9.70923H21.0958ZM1.47498 9.70923H0.974976V10.2092H1.47498V9.70923ZM1.47498 14.5V14H0.974976V14.5H1.47498ZM1.47498 16.5H0.974976V17H1.47498V16.5ZM21.0958 16.5V17H21.5958V16.5H21.0958ZM21.0958 14.5H21.5958V14H21.0958V14.5ZM1.97498 0.0286255H1.47498V1.02863H1.97498V0.0286255ZM20.5958 0.0286255H1.97498V1.02863H20.5958V0.0286255ZM21.0958 0.0286255H20.5958V1.02863H21.0958V0.0286255ZM21.5958 1.02863V0.528625H20.5958V1.02863H21.5958ZM21.5958 2.02863V1.02863H20.5958V2.02863H21.5958ZM21.5958 2.52863V2.02863H20.5958V2.52863H21.5958ZM20.5958 3.02863H21.0958V2.02863H20.5958V3.02863ZM1.97498 3.02863H20.5958V2.02863H1.97498V3.02863ZM1.47498 3.02863H1.97498V2.02863H1.47498V3.02863ZM0.974976 2.02863V2.52863H1.97498V2.02863H0.974976ZM0.974976 1.02863V2.02863H1.97498V1.02863H0.974976ZM0.974976 0.528625V1.02863H1.97498V0.528625H0.974976ZM1.97498 7.20923H1.47498V8.20923H1.97498V7.20923ZM20.5958 7.20923H1.97498V8.20923H20.5958V7.20923ZM21.0958 7.20923H20.5958V8.20923H21.0958V7.20923ZM21.5958 8.20923V7.70923H20.5958V8.20923H21.5958ZM21.5958 9.20923V8.20923H20.5958V9.20923H21.5958ZM21.5958 9.70923V9.20923H20.5958V9.70923H21.5958ZM20.5958 10.2092H21.0958V9.20923H20.5958V10.2092ZM1.97498 10.2092H20.5958V9.20923H1.97498V10.2092ZM1.47498 10.2092H1.97498V9.20923H1.47498V10.2092ZM0.974976 9.20923V9.70923H1.97498V9.20923H0.974976ZM0.974976 8.20923V9.20923H1.97498V8.20923H0.974976ZM0.974976 7.70923V8.20923H1.97498V7.70923H0.974976ZM1.47498 15H1.97498V14H1.47498V15ZM1.97498 15V14.5H0.974976V15H1.97498ZM1.97498 16V15H0.974976V16H1.97498ZM1.97498 16.5V16H0.974976V16.5H1.97498ZM1.97498 16H1.47498V17H1.97498V16ZM20.5958 16H1.97498V17H20.5958V16ZM21.0958 16H20.5958V17H21.0958V16ZM20.5958 16V16.5H21.5958V16H20.5958ZM20.5958 15V16H21.5958V15H20.5958ZM20.5958 14.5V15H21.5958V14.5H20.5958ZM20.5958 15H21.0958V14H20.5958V15ZM1.97498 15H20.5958V14H1.97498V15Z" fill="#333333"/>
</svg>
